<svg width="28" height="46" viewBox="0 0 28 46" fill="none" xmlns="http://www.w3.org/2000/svg">
<path d="M27.8907 5.79099V1.26169C27.8907 0.869112 27.4395 0.652315 27.1348 0.892549L0.720787 21.5234C0.496363 21.6979 0.314767 21.9214 0.189851 22.1768C0.0649353 22.4322 0 22.7127 0 22.997C0 23.2813 0.0649353 23.5619 0.189851 23.8173C0.314767 24.0727 0.496363 24.2961 0.720787 24.4707L27.1348 45.1015C27.4454 45.3418 27.8907 45.125 27.8907 44.7324V40.2031C27.8907 39.916 27.7559 39.6406 27.5333 39.4648L6.43954 23L27.5333 6.52927C27.7559 6.35349 27.8907 6.0781 27.8907 5.79099Z" fill="white"/>
</svg>
