<svg width="61" height="60" viewBox="0 0 61 60" fill="none" xmlns="http://www.w3.org/2000/svg">
<path d="M18.0469 12.791V8.26169C18.0469 7.86911 18.4981 7.65231 18.8028 7.89255L45.2168 28.5234C45.4413 28.6979 45.6229 28.9214 45.7478 29.1768C45.8727 29.4322 45.9376 29.7127 45.9376 29.997C45.9376 30.2813 45.8727 30.5619 45.7478 30.8173C45.6229 31.0727 45.4413 31.2961 45.2168 31.4707L18.8028 52.1015C18.4922 52.3418 18.0469 52.125 18.0469 51.7324V47.2031C18.0469 46.916 18.1817 46.6406 18.4043 46.4648L39.4981 30L18.4043 13.5293C18.1817 13.3535 18.0469 13.0781 18.0469 12.791Z" fill="white"/>
</svg>
