<svg width="16" height="16" viewBox="0 0 16 16" fill="none" xmlns="http://www.w3.org/2000/svg">
<path d="M2 2.66667C2 2.48986 2.07024 2.32029 2.19526 2.19526C2.32029 2.07024 2.48986 2 2.66667 2H4.66667C4.84348 2 5.01305 2.07024 5.13807 2.19526C5.2631 2.32029 5.33333 2.48986 5.33333 2.66667V4.66667C5.33333 4.84348 5.2631 5.01305 5.13807 5.13807C5.01305 5.2631 4.84348 5.33333 4.66667 5.33333H2.66667C2.48986 5.33333 2.32029 5.2631 2.19526 5.13807C2.07024 5.01305 2 4.84348 2 4.66667V2.66667ZM2 7C2 6.82319 2.07024 6.65362 2.19526 6.5286C2.32029 6.40357 2.48986 6.33333 2.66667 6.33333H4.66667C4.84348 6.33333 5.01305 6.40357 5.13807 6.5286C5.2631 6.65362 5.33333 6.82319 5.33333 7V9C5.33333 9.17681 5.2631 9.34638 5.13807 9.4714C5.01305 9.59643 4.84348 9.66667 4.66667 9.66667H2.66667C2.48986 9.66667 2.32029 9.59643 2.19526 9.4714C2.07024 9.34638 2 9.17681 2 9V7ZM2 11.3333C2 11.1565 2.07024 10.987 2.19526 10.8619C2.32029 10.7369 2.48986 10.6667 2.66667 10.6667H4.66667C4.84348 10.6667 5.01305 10.7369 5.13807 10.8619C5.2631 10.987 5.33333 11.1565 5.33333 11.3333V13.3333C5.33333 13.5101 5.2631 13.6797 5.13807 13.8047C5.01305 13.9298 4.84348 14 4.66667 14H2.66667C2.48986 14 2.32029 13.9298 2.19526 13.8047C2.07024 13.6797 2 13.5101 2 13.3333V11.3333ZM6.33333 2.66667C6.33333 2.48986 6.40357 2.32029 6.5286 2.19526C6.65362 2.07024 6.82319 2 7 2H9C9.17681 2 9.34638 2.07024 9.4714 2.19526C9.59643 2.32029 9.66667 2.48986 9.66667 2.66667V4.66667C9.66667 4.84348 9.59643 5.01305 9.4714 5.13807C9.34638 5.2631 9.17681 5.33333 9 5.33333H7C6.82319 5.33333 6.65362 5.2631 6.5286 5.13807C6.40357 5.01305 6.33333 4.84348 6.33333 4.66667V2.66667ZM6.33333 7C6.33333 6.82319 6.40357 6.65362 6.5286 6.5286C6.65362 6.40357 6.82319 6.33333 7 6.33333H9C9.17681 6.33333 9.34638 6.40357 9.4714 6.5286C9.59643 6.65362 9.66667 6.82319 9.66667 7V9C9.66667 9.17681 9.59643 9.34638 9.4714 9.4714C9.34638 9.59643 9.17681 9.66667 9 9.66667H7C6.82319 9.66667 6.65362 9.59643 6.5286 9.4714C6.40357 9.34638 6.33333 9.17681 6.33333 9V7ZM6.33333 11.3333C6.33333 11.1565 6.40357 10.987 6.5286 10.8619C6.65362 10.7369 6.82319 10.6667 7 10.6667H9C9.17681 10.6667 9.34638 10.7369 9.4714 10.8619C9.59643 10.987 9.66667 11.1565 9.66667 11.3333V13.3333C9.66667 13.5101 9.59643 13.6797 9.4714 13.8047C9.34638 13.9298 9.17681 14 9 14H7C6.82319 14 6.65362 13.9298 6.5286 13.8047C6.40357 13.6797 6.33333 13.5101 6.33333 13.3333V11.3333ZM10.6667 2.66667C10.6667 2.48986 10.7369 2.32029 10.8619 2.19526C10.987 2.07024 11.1565 2 11.3333 2H13.3333C13.5101 2 13.6797 2.07024 13.8047 2.19526C13.9298 2.32029 14 2.48986 14 2.66667V4.66667C14 4.84348 13.9298 5.01305 13.8047 5.13807C13.6797 5.2631 13.5101 5.33333 13.3333 5.33333H11.3333C11.1565 5.33333 10.987 5.2631 10.8619 5.13807C10.7369 5.01305 10.6667 4.84348 10.6667 4.66667V2.66667ZM10.6667 7C10.6667 6.82319 10.7369 6.65362 10.8619 6.5286C10.987 6.40357 11.1565 6.33333 11.3333 6.33333H13.3333C13.5101 6.33333 13.6797 6.40357 13.8047 6.5286C13.9298 6.65362 14 6.82319 14 7V9C14 9.17681 13.9298 9.34638 13.8047 9.4714C13.6797 9.59643 13.5101 9.66667 13.3333 9.66667H11.3333C11.1565 9.66667 10.987 9.59643 10.8619 9.4714C10.7369 9.34638 10.6667 9.17681 10.6667 9V7ZM10.6667 11.3333C10.6667 11.1565 10.7369 10.987 10.8619 10.8619C10.987 10.7369 11.1565 10.6667 11.3333 10.6667H13.3333C13.5101 10.6667 13.6797 10.7369 13.8047 10.8619C13.9298 10.987 14 11.1565 14 11.3333V13.3333C14 13.5101 13.9298 13.6797 13.8047 13.8047C13.6797 13.9298 13.5101 14 13.3333 14H11.3333C11.1565 14 10.987 13.9298 10.8619 13.8047C10.7369 13.6797 10.6667 13.5101 10.6667 13.3333V11.3333Z" fill="#333333"/>
</svg>
