<svg width="16" height="16" viewBox="0 0 16 16" fill="none" xmlns="http://www.w3.org/2000/svg">
<path d="M13.5625 8.52348L8.37661 2.54692C8.32973 2.49284 8.27178 2.44947 8.20667 2.41974C8.14157 2.39002 8.07083 2.37463 7.99926 2.37463C7.92769 2.37463 7.85696 2.39002 7.79186 2.41974C7.72675 2.44947 7.6688 2.49284 7.62192 2.54692L2.43755 8.52348C2.42188 8.5415 2.41172 8.56363 2.40828 8.58726C2.40484 8.61088 2.40827 8.635 2.41814 8.65673C2.42802 8.67847 2.44394 8.6969 2.464 8.70984C2.48406 8.72279 2.50742 8.72969 2.5313 8.72973H3.79692C3.8688 8.72973 3.93755 8.69848 3.98598 8.6438L7.4063 4.70161V13.5C7.4063 13.5688 7.46255 13.625 7.5313 13.625H8.4688C8.53755 13.625 8.5938 13.5688 8.5938 13.5V4.70161L12.0141 8.6438C12.061 8.69848 12.1297 8.72973 12.2032 8.72973H13.4688C13.575 8.72973 13.6329 8.60473 13.5625 8.52348Z" fill="#333333"/>
</svg>
